#!OML:ASF Y:\EmotionMaleHayes\Project 1\Capture day 1\Session 1\Male1.ASF
:FULLY-SPECIFIED
:DEGREES
460
root -9.71387 16.2481 -12.9609 374.688 64.397 380.185
lowerback 9.1555 3.50636 -5.03486
upperback 3.1936 4.25365 -2.79486
thorax -1.94616 2.1642 -0.535609
lowerneck -19.5689 -5.12175 -2.52527
upperneck 30.1925 -7.95235 5.33571
head 13.8849 -2.81855 1.19566
rclavicle 1.45113e-014 -7.50412e-014
rhumerus -30.5754 -0.77572 -82.3163
rradius 36.266
rwrist -0.939149
rhand -15.1804 -33.3257
rfingers 7.12502
rthumb 10.9907 -63.018
lclavicle 1.45113e-014 -7.50412e-014
lhumerus -33.837 7.73441 74.4573
lradius 20.9693
lwrist -28.1581
lhand -11.7843 -22.9904
lfingers 7.12502
lthumb 14.2648 6.4997
rfemur 13.8817 12.0423 14.3334
rtibia 50.5036
rfoot 6.01784 4.21624
rtoes 28.7019
lfemur -16.1006 -2.37759 -20.4437
ltibia 28.843
lfoot -10.2107 2.3634
ltoes -21.6073
461
root -9.55677 16.2668 -12.9473 376.234 63.7395 381.992
lowerback 9.1936 3.46519 -6.11592
upperback 3.23146 4.10578 -3.00607
thorax -1.97725 2.09195 -0.142598
lowerneck -19.6359 -4.94803 -2.50075
upperneck 30.2842 -7.66103 5.17742
head 13.9134 -2.71035 1.18036
rclavicle 1.91454e-014 4.48259e-014
rhumerus -31.0376 -1.75433 -81.9417
rradius 35.1272
rwrist -0.492802
rhand -14.7273 -33.858
rfingers 7.12502
rthumb 11.4277 -63.5266
lclavicle 1.91454e-014 4.48259e-014
lhumerus -32.6727 6.8096 75.0818
lradius 21.4685
lwrist -26.8733
lhand -12.3151 -22.8912
lfingers 7.12502
lthumb 13.7533 6.63424
rfemur 12.2081 11.6854 12.8923
rtibia 53.0263
rfoot 6.66218 2.61313
rtoes 27.8077
lfemur -15.2096 -2.56837 -21.8528
ltibia 28.6064
lfoot -10.8267 2.86504
ltoes -21.3458
462
root -9.40599 16.2847 -12.9287 377.633 62.571 383.527
lowerback 9.02191 3.55598 -7.33415
upperback 3.29206 4.14405 -3.27183
thorax -1.87866 2.10935 0.260086
lowerneck -19.7471 -4.76589 -2.3551
upperneck 30.1904 -7.39025 5.00235
head 13.8666 -2.60648 1.13084
rclavicle -2.50841e-014 -1.78906e-015
rhumerus -31.2498 -2.60857 -81.6953
rradius 33.8774
rwrist 0.11919
rhand -14.4861 -34.9412
rfingers 7.12502
rthumb 11.6604 -64.5967
lclavicle -2.50841e-014 -1.78906e-015
lhumerus -31.5968 5.76371 75.5945
lradius 22.1781
lwrist -25.4468
lhand -13.0794 -22.9327
lfingers 7.12502
lthumb 13.0166 6.64118
rfemur 10.1034 11.5684 11.3261
rtibia 55.7405
rfoot 5.7465 1.26411
rtoes 23.978
lfemur -14.2236 -2.60301 -23.2616
ltibia 27.9709
lfoot -11.4482 3.51782
ltoes -19.5699
463
root -9.25023 16.312 -12.9082 378.416 62.2256 384.581
lowerback 8.86204 3.34719 -7.99059
upperback 3.53804 3.85553 -3.43595
thorax -1.54177 1.9554 0.503256
lowerneck -19.8151 -4.5484 -2.15215
upperneck 29.9576 -7.11602 4.92404
head 13.7546 -2.48635 1.11017
rclavicle 7.33018e-016 -7.5737e-014
rhumerus -31.3067 -3.4729 -81.542
rradius 32.5844
rwrist 1.09888
rhand -14.3797 -35.9517
rfingers 7.12502
rthumb 11.7629 -65.6014
lclavicle 7.33018e-016 -7.5737e-014
lhumerus -30.4663 4.48836 76.0481
lradius 23.0101
lwrist -23.5862
lhand -13.5679 -22.8265
lfingers 7.12502
lthumb 12.5458 6.77688
rfemur 8.60583 10.8034 10.4293
rtibia 57.9673
rfoot 4.44125 -0.108641
rtoes 22.3049
lfemur -13.0395 -3.13992 -24.2727
ltibia 27.2694
lfoot -11.7926 4.13135
ltoes -19.663
464
root -9.10642 16.3407 -12.8838 378.017 62.0129 384.25
lowerback 9.33034 3.24394 -8.28342
upperback 3.33336 3.61936 -3.24777
thorax -2.02662 1.8497 0.851183
lowerneck -19.7534 -4.41267 -2.18949
upperneck 30.1636 -6.86644 4.78471
head 13.8124 -2.39753 1.10916
rclavicle 1.14425e-014 2.5842e-014
rhumerus -32.1054 -4.24165 -80.9755
rradius 31.4288
rwrist 2.00981
rhand -14.2735 -35.9952
rfingers 7.12502
rthumb 11.8654 -65.639
lclavicle 1.14425e-014 2.5842e-014
lhumerus -29.9992 2.88535 76.7066
lradius 24.0519
lwrist -21.4321
lhand -13.6414 -22.4148
lfingers 7.12502
lthumb 12.4749 7.19286
rfemur 6.90057 10.0605 10.4125
rtibia 60.118
rfoot 2.9921 -1.2603
rtoes 22.0854
lfemur -12.1458 -3.12604 -24.3971
ltibia 26.9084
lfoot -12.0821 4.55868
ltoes -21.2231
465
root -8.9702 16.3732 -12.8572 377.541 61.5965 383.803
lowerback 8.97127 3.02439 -8.37166
upperback 3.70241 3.39767 -3.26097
thorax -1.42791 1.71678 0.945493
lowerneck -20.163 -4.13307 -1.91735
upperneck 30.1329 -6.52404 4.66108
head 13.8551 -2.23468 1.06678
rclavicle 3.01407e-014 2.34566e-014
rhumerus -31.8358 -5.16081 -80.7038
rradius 30.072
rwrist 2.85542
rhand -13.9924 -35.106
rfingers 7.12502
rthumb 12.1364 -64.734
lclavicle 3.01407e-014 2.34566e-014
lhumerus -28.5465 2.03381 76.8512
lradius 24.8965
lwrist -19.8362
lhand -14.0375 -22.0751
lfingers 7.12502
lthumb 12.0929 7.55549
rfemur 4.93446 9.29376 10.3506
rtibia 62.283
rfoot 1.80106 -1.76699
rtoes 22.2254
lfemur -11.4165 -2.78951 -24.4113
ltibia 26.7841
lfoot -12.6645 4.52003
ltoes -20.2132
466
root -8.83522 16.4104 -12.8316 377.433 61.0436 383.719
lowerback 9.39252 2.97026 -8.91933
upperback 3.47399 3.20573 -3.14243
thorax -1.91672 1.63512 1.362
lowerneck -20.1755 -3.9624 -1.79012
upperneck 30.3048 -6.22399 4.34688
head 13.8992 -2.13152 0.974997
rclavicle 5.41937e-014 -1.98785e-014
rhumerus -32.6425 -5.59656 -80.1694
rradius 29.2296
rwrist 3.81499
rhand -13.6381 -35.1528
rfingers 7.12502
rthumb 12.478 -64.7603
lclavicle 5.41937e-014 -1.98785e-014
lhumerus -27.9925 1.40437 77.1029
lradius 25.6744
lwrist -18.7761
lhand -14.8474 -22.296
lfingers 7.12502
lthumb 11.3119 7.37892
rfemur 2.89107 8.45086 10.0148
rtibia 64.2622
rfoot 0.749954 -2.0308
rtoes 23.1993
lfemur -10.6716 -2.45315 -24.6829
ltibia 26.5385
lfoot -13.2093 4.52729
ltoes -19.1924
467
root -8.69732 16.4564 -12.8066 378.054 61.5796 384.588
lowerback 9.79532 2.51169 -9.27425
upperback 3.48538 2.52086 -3.10503
thorax -2.07836 1.30014 1.66329
lowerneck -20.1513 -3.80201 -1.67241
upperneck 30.356 -5.95906 4.11589
head 13.8905 -2.03751 0.910789
rclavicle 1.11071e-014 -6.52014e-014
rhumerus -33.3437 -5.75008 -79.8621
rradius 28.7605
rwrist 4.68006
rhand -13.3016 -35.5429
rfingers 7.12502
rthumb 12.8025 -65.1303
lclavicle 1.11071e-014 -6.52014e-014
lhumerus -27.2199 0.589607 77.2678
lradius 26.4151
lwrist -17.517
lhand -15.6552 -22.6762
lfingers 7.12502
lthumb 10.5328 7.03991
rfemur 1.62823 6.5103 9.61478
rtibia 65.4586
rfoot -0.133989 -2.32246
rtoes 26.5691
lfemur -9.78875 -2.96451 -25.2567
ltibia 26.2565
lfoot -13.3972 4.55598
ltoes -21.2096
468
root -8.56605 16.5006 -12.7788 377.973 61.279 384.681
lowerback 10.0086 2.38149 -9.61866
upperback 3.5443 2.29628 -3.07425
thorax -2.12307 1.1886 1.90662
lowerneck -20.1148 -3.62821 -1.7274
upperneck 30.3392 -5.71292 4.19242
head 13.8708 -1.92963 0.995066
rclavicle 6.18966e-014 3.26007e-014
rhumerus -33.8421 -6.57287 -79.2489
rradius 28.0818
rwrist 6.01179
rhand -12.3772 -35.6666
rfingers 7.12502
rthumb 13.6935 -65.1961
lclavicle 6.18966e-014 3.26007e-014
lhumerus -26.2612 -0.493272 77.4414
lradius 27.2124
lwrist -16.0243
lhand -16.3964 -22.515
lfingers 7.12502
lthumb 9.8177 7.23612
rfemur -0.0256696 5.48061 9.42583
rtibia 66.7302
rfoot -0.791733 -2.6416
rtoes 29.3515
lfemur -8.79193 -2.70268 -25.5892
ltibia 25.724
lfoot -12.9371 5.06163
ltoes -29.6314
469
root -8.42835 16.5427 -12.7526 377.356 60.5913 384.106
lowerback 10.0111 2.3965 -9.74269
upperback 3.61179 2.30987 -3.0521
thorax -2.05914 1.1906 1.99782
lowerneck -20.1317 -3.41988 -1.66373
upperneck 30.3372 -5.4821 4.33632
head 13.8686 -1.80306 1.08274
rclavicle 3.97569e-015 -3.73715e-014
rhumerus -34.3304 -7.41702 -78.6424
rradius 27.5657
rwrist 7.5967
rhand -11.0935 -36.5912
rfingers 7.12502
rthumb 14.9304 -66.033
lclavicle 3.97569e-015 -3.73715e-014
lhumerus -25.1913 -1.52689 77.5247
lradius 28.008
lwrist -14.4862
lhand -17.1414 -22.203
lfingers 7.12502
lthumb 9.09894 7.58068
rfemur -1.95637 4.88623 9.45249
rtibia 68.0409
rfoot -1.49387 -2.81931
rtoes 30.5587
lfemur -7.76526 -2.24794 -25.6751
ltibia 25.0155
lfoot -12.9935 5.45009
ltoes -31.921
470
root -8.31173 16.5743 -12.7242 376.989 60.25 383.538
lowerback 10.0023 2.29868 -9.80165
upperback 3.57407 2.17061 -3.03225
thorax -2.08183 1.1219 2.06829
lowerneck -20.1496 -3.22352 -1.32534
upperneck 30.3832 -5.30059 4.27772
head 13.8725 -1.69257 1.03412
rclavicle 1.16538e-014 -7.95139e-015
rhumerus -34.9713 -7.89505 -78.329
rradius 27.223
rwrist 8.57662
rhand -10.8769 -36.7517
rfingers 7.12502
rthumb 15.1391 -66.178
lclavicle 1.16538e-014 -7.95139e-015
lhumerus -24.1199 -2.37327 77.4033
lradius 28.666
lwrist -13.2742
lhand -17.9903 -22.3622
lfingers 7.12502
lthumb 8.27972 7.45553
rfemur -4.17484 3.94092 9.70845
rtibia 69.2946
rfoot -2.21594 -3.04542
rtoes 28.4507
lfemur -7.12283 -2.0074 -25.5944
ltibia 24.4493
lfoot -13.4883 5.38198
ltoes -29.151
